<svg width="202" height="202" viewBox="0 0 202 202" fill="none" xmlns="http://www.w3.org/2000/svg">
<g id="Black and White Collection 4">
<path id="Vector" d="M201 1H1V201H201V1Z" fill="white"/>
<g id="Group" opacity="0.1">
<path id="Vector_2" opacity="0.1" d="M201 196.265V200.984H196.28" stroke="#20263C" stroke-width="1.57319" stroke-miterlimit="10"/>
<path id="Vector_3" opacity="0.1" d="M187.203 200.984H10.2504" stroke="#20263C" stroke-width="1.57319" stroke-miterlimit="10" stroke-dasharray="9.08 9.08"/>
<path id="Vector_4" opacity="0.1" d="M5.71958 200.984H1V196.265" stroke="#20263C" stroke-width="1.57319" stroke-miterlimit="10"/>
<path id="Vector_5" opacity="0.1" d="M1 187.187V10.2502" stroke="#20263C" stroke-width="1.57319" stroke-miterlimit="10" stroke-dasharray="9.08 9.08"/>
<path id="Vector_6" opacity="0.1" d="M1 5.71958V1H5.71958" stroke="#20263C" stroke-width="1.57319" stroke-miterlimit="10"/>
<path id="Vector_7" opacity="0.1" d="M14.7969 1H191.734" stroke="#20263C" stroke-width="1.57319" stroke-miterlimit="10" stroke-dasharray="9.08 9.08"/>
<path id="Vector_8" opacity="0.1" d="M196.28 1H201V5.71958" stroke="#20263C" stroke-width="1.57319" stroke-miterlimit="10"/>
<path id="Vector_9" opacity="0.1" d="M201 14.7812V191.734" stroke="#20263C" stroke-width="1.57319" stroke-miterlimit="10" stroke-dasharray="9.08 9.08"/>
</g>
<path id="Vector_10" d="M75.412 68.2066L81.7048 71.353C82.8631 71.859 84.1236 72.0869 85.3856 72.0186C86.6476 71.9504 87.8761 71.5877 88.9729 70.9597L94.9198 67.0897C95.943 66.347 96.7758 65.3724 97.35 64.2458C97.9242 63.1192 98.2236 61.8726 98.2233 60.6081L97.8459 53.513C97.7081 52.2587 97.2777 51.0541 96.5891 49.9966C95.9003 48.9391 94.9729 48.0581 93.8813 47.4248L87.5885 44.1997C86.4325 43.6878 85.1721 43.4553 83.9095 43.5209C82.6468 43.5865 81.4172 43.9483 80.3204 44.5773L74.3739 48.4473C73.3524 49.1919 72.5208 50.1668 71.9469 51.2931C71.3728 52.4192 71.0724 53.665 71.07 54.9289L71.4476 62.024C71.5698 63.2954 71.9932 64.5194 72.6825 65.5945C73.3719 66.6698 74.3076 67.5652 75.412 68.2066Z" fill="#414042"/>
<path id="Vector_11" d="M113.373 77.3942L107.08 74.1692C105.925 73.6634 104.667 73.4356 103.407 73.5039C102.148 73.5722 100.922 73.9348 99.8278 74.5625L93.8182 78.4326C92.8005 79.1806 91.9716 80.1563 91.398 81.2818C90.8244 82.4071 90.5217 83.651 90.5145 84.9141L90.8922 92.0092C91.0299 93.2637 91.4603 94.4683 92.1489 95.5258C92.8376 96.5833 93.765 97.4643 94.8565 98.0975L101.149 101.244C102.303 101.756 103.561 101.988 104.821 101.923C106.081 101.857 107.308 101.495 108.402 100.866L114.364 96.9962C115.382 96.2449 116.211 95.2663 116.784 94.1384C117.358 93.0105 117.661 91.7643 117.668 90.4989L117.29 83.4196C117.146 82.1813 116.717 80.9931 116.038 79.9478C115.358 78.9026 114.446 78.0287 113.373 77.3942Z" fill="#414042"/>
<path id="Vector_12" d="M132.786 107.317L126.494 104.17C125.337 103.658 124.077 103.426 122.814 103.491C121.552 103.557 120.322 103.919 119.225 104.548L113.279 108.418C112.259 109.164 111.429 110.139 110.855 111.265C110.281 112.391 109.98 113.636 109.975 114.899L110.353 121.994C110.503 123.229 110.937 124.411 111.619 125.451C112.301 126.49 113.213 127.359 114.286 127.988L120.579 131.135C121.737 131.64 122.997 131.868 124.259 131.8C125.521 131.732 126.75 131.369 127.847 130.741L133.809 126.871C134.828 126.125 135.656 125.149 136.227 124.023C136.798 122.897 137.096 121.652 137.097 120.39L136.767 113.421C136.631 112.161 136.2 110.952 135.508 109.892C134.816 108.831 133.884 107.948 132.786 107.317Z" fill="#414042"/>
<path id="Vector_13" d="M86.4244 89.6965L86.1255 84.1745C86.1327 82.9114 86.4352 81.6675 87.009 80.5422C87.5826 79.4167 88.4113 78.441 89.4292 77.693L101.024 70.1574C102.118 69.5297 103.344 69.1671 104.603 69.0988C105.863 69.0305 107.121 69.2585 108.276 69.7641L113.216 72.2812C114.372 72.7931 115.632 73.0258 116.895 72.9602C118.158 72.8946 119.387 72.5326 120.484 71.9036L126.431 68.0179C127.451 67.2725 128.282 66.2974 128.856 65.1713C129.43 64.0454 129.731 62.8002 129.734 61.5363L129.357 54.4569C129.222 53.1998 128.792 51.9921 128.103 50.9317C127.415 49.8712 126.486 48.9879 125.392 48.3529L119.1 45.1279C117.941 44.6221 116.681 44.3942 115.419 44.4624C114.157 44.5307 112.928 44.8933 111.831 45.5212L105.759 49.3283C104.74 50.0746 103.912 51.0503 103.341 52.1764C102.769 53.3025 102.471 54.5472 102.471 55.8099L102.754 61.3318C102.754 62.5946 102.456 63.8393 101.884 64.9654C101.313 66.0915 100.485 67.0672 99.4661 67.8133L87.8717 75.3489C86.7749 75.9779 85.5454 76.3399 84.2828 76.4055C83.02 76.4711 81.7597 76.2384 80.6036 75.7265L75.6795 73.2251C74.5233 72.7132 73.2631 72.4807 72.0002 72.5463C70.7376 72.6119 69.5081 72.9737 68.4113 73.6027L62.4647 77.4727C61.4432 78.2173 60.6117 79.1922 60.0377 80.3185C59.4636 81.4447 59.1633 82.6904 59.1609 83.9543L59.5385 91.0494C59.6725 92.307 60.1016 93.5152 60.7903 94.5759C61.4792 95.6365 62.4085 96.5195 63.503 97.1534L69.7957 100.3C70.9539 100.806 72.2144 101.034 73.4764 100.965C74.7384 100.897 75.967 100.534 77.0639 99.9065L83.0106 96.0364C84.0325 95.317 84.8727 94.3696 85.4654 93.2692C86.0578 92.1689 86.3861 90.9457 86.4244 89.6965Z" fill="#414042"/>
<path id="Vector_14" d="M148.707 84.3794C148.567 83.1235 148.136 81.9178 147.447 80.8581C146.759 79.7984 145.833 78.9139 144.743 78.2754L138.45 75.129C137.291 74.6243 136.031 74.397 134.769 74.4653C133.507 74.5335 132.279 74.8955 131.182 75.5223L125.235 79.3923C124.215 80.1387 123.385 81.1139 122.812 82.2397C122.238 83.3654 121.936 84.6103 121.931 85.8739L122.23 91.4115C122.225 92.675 121.924 93.9198 121.35 95.0456C120.776 96.1714 119.946 97.1468 118.927 97.8931L107.348 105.413C106.251 106.041 105.022 106.403 103.76 106.472C102.498 106.54 101.238 106.312 100.08 105.806L95.1398 103.289C93.9843 102.783 92.7264 102.555 91.4669 102.624C90.2074 102.692 88.9816 103.055 87.8874 103.682L81.8778 107.537C80.8601 108.285 80.0314 109.26 79.4576 110.386C78.884 111.511 78.5815 112.755 78.5743 114.018L78.9517 121.113C79.0895 122.368 79.5199 123.572 80.2085 124.63C80.8973 125.687 81.8247 126.568 82.9163 127.202L89.2091 130.427C90.3624 130.938 91.6201 131.171 92.8803 131.105C94.1406 131.04 95.3673 130.678 96.4615 130.049L102.424 126.179C103.441 125.43 104.269 124.454 104.842 123.329C105.416 122.204 105.719 120.96 105.728 119.698L105.429 114.16C105.432 112.896 105.733 111.651 106.307 110.525C106.881 109.399 107.712 108.424 108.732 107.678L120.311 100.143C121.408 99.5138 122.637 99.1518 123.9 99.0862C125.163 99.0206 126.423 99.2531 127.579 99.765L132.503 102.267C133.659 102.778 134.92 103.011 136.182 102.945C137.445 102.88 138.674 102.518 139.771 101.889L145.734 98.0189C146.751 97.2717 147.579 96.2958 148.15 95.1701C148.722 94.0441 149.02 92.7997 149.022 91.5374L148.707 84.3794Z" fill="#414042"/>
</g>
</svg>
