<svg width="202" height="202" viewBox="0 0 202 202" fill="none" xmlns="http://www.w3.org/2000/svg">
<g id="Black and White Collection 1">
<path id="Vector" d="M201 1H1V201H201V1Z" fill="white"/>
<g id="Group" opacity="0.1">
<path id="Vector_2" opacity="0.1" d="M200.984 196.265V200.984H196.265" stroke="#20263C" stroke-width="1.57319" stroke-miterlimit="10"/>
<path id="Vector_3" opacity="0.1" d="M187.203 200.984H10.2504" stroke="#20263C" stroke-width="1.57319" stroke-miterlimit="10" stroke-dasharray="9.08 9.08"/>
<path id="Vector_4" opacity="0.1" d="M5.71958 200.984H1V196.265" stroke="#20263C" stroke-width="1.57319" stroke-miterlimit="10"/>
<path id="Vector_5" opacity="0.1" d="M1 187.187V10.2504" stroke="#20263C" stroke-width="1.57319" stroke-miterlimit="10" stroke-dasharray="9.08 9.08"/>
<path id="Vector_6" opacity="0.1" d="M1 5.71958V1H5.71958" stroke="#20263C" stroke-width="1.57319" stroke-miterlimit="10"/>
<path id="Vector_7" opacity="0.1" d="M14.7969 1H191.734" stroke="#20263C" stroke-width="1.57319" stroke-miterlimit="10" stroke-dasharray="9.08 9.08"/>
<path id="Vector_8" opacity="0.1" d="M196.265 1H200.984V5.71958" stroke="#20263C" stroke-width="1.57319" stroke-miterlimit="10"/>
<path id="Vector_9" opacity="0.1" d="M200.984 14.7812V191.734" stroke="#20263C" stroke-width="1.57319" stroke-miterlimit="10" stroke-dasharray="9.08 9.08"/>
</g>
<path id="Vector_10" d="M76.5132 89.5116L56.8614 78.0864L37.1834 89.5116V112.31L56.8614 123.709L76.5132 112.31V89.5116ZM72.2817 109.858L56.8614 118.779L41.4409 109.858V91.9636L56.8614 83.0165L72.2817 91.9636V109.858Z" fill="#414042"/>
<path id="Vector_11" d="M118.989 89.4856L100.099 78.0864L81.2328 89.4856V112.284L100.099 123.709L118.989 112.284V89.4856Z" fill="#414042"/>
<path id="Vector_12" d="M143.361 78.0864L123.709 89.5116V112.31L143.361 123.709L163.039 112.31V89.5116L143.361 78.0864ZM158.782 109.858L143.361 118.779L127.941 109.858V91.9636L143.361 83.0165L158.782 91.9636V109.858Z" fill="#414042"/>
<path id="Vector_13" d="M59.2081 127.268V150.067L78.9119 161.466L98.5379 150.067V127.268L78.9119 115.843L59.2081 127.268ZM94.2342 147.693L78.9119 156.536L63.3563 147.693V129.72L78.9119 120.773L94.2861 129.72L94.2342 147.693Z" fill="#414042"/>
<path id="Vector_14" d="M101.684 127.268V150.067L121.336 161.466L141.014 150.067V127.268L121.336 115.843L101.684 127.268ZM136.757 147.693L121.336 156.614L105.942 147.693V129.72L121.336 120.773L136.757 129.72V147.693Z" fill="#414042"/>
<path id="Vector_15" d="M98.5379 74.5532V51.6768L78.938 40.3298L59.2081 51.6768V74.475L78.938 85.9524L98.5379 74.5532ZM63.3618 54.2853L78.938 45.2599L94.2806 54.2853V72.1796L78.938 81.0223L63.3618 72.1012V54.2853Z" fill="#414042"/>
<path id="Vector_16" d="M141.014 74.6316V51.755L121.336 40.3298L101.684 51.755V74.5532L121.336 85.9524L141.014 74.6316ZM105.942 54.3635L121.336 45.4164L136.757 54.3635V72.2578L121.336 81.1789L105.942 72.2578V54.3635Z" fill="#414042"/>
</g>
</svg>
