<svg width="202" height="202" viewBox="0 0 202 202" fill="none" xmlns="http://www.w3.org/2000/svg">
<g id="Black and White Collection 3">
<path id="Vector" d="M201 1H1V201H201V1Z" fill="white"/>
<g id="Group" opacity="0.1">
<path id="Vector_2" opacity="0.1" d="M201 196.265V200.984H196.28" stroke="#20263C" stroke-width="1.57319" stroke-miterlimit="10"/>
<path id="Vector_3" opacity="0.1" d="M187.203 200.984H10.2659" stroke="#20263C" stroke-width="1.57319" stroke-miterlimit="10" stroke-dasharray="9.08 9.08"/>
<path id="Vector_4" opacity="0.1" d="M5.71958 200.984H1V196.265" stroke="#20263C" stroke-width="1.57319" stroke-miterlimit="10"/>
<path id="Vector_5" opacity="0.1" d="M1 187.187V10.2504" stroke="#20263C" stroke-width="1.57319" stroke-miterlimit="10" stroke-dasharray="9.08 9.08"/>
<path id="Vector_6" opacity="0.1" d="M1 5.71958V1H5.71958" stroke="#20263C" stroke-width="1.57319" stroke-miterlimit="10"/>
<path id="Vector_7" opacity="0.1" d="M14.7969 1H191.734" stroke="#20263C" stroke-width="1.57319" stroke-miterlimit="10" stroke-dasharray="9.08 9.08"/>
<path id="Vector_8" opacity="0.1" d="M196.28 1H201V5.71958" stroke="#20263C" stroke-width="1.57319" stroke-miterlimit="10"/>
<path id="Vector_9" opacity="0.1" d="M201 14.7812V191.734" stroke="#20263C" stroke-width="1.57319" stroke-miterlimit="10" stroke-dasharray="9.08 9.08"/>
</g>
<path id="Vector_10" d="M102.487 77.5207C105.575 77.5236 108.626 78.1939 111.444 79.4877C114.261 80.7816 116.781 82.6701 118.839 85.0299L125.282 79.0727C121.158 74.369 115.747 71.0494 109.756 69.5473C103.765 68.0451 97.4713 68.43 91.6965 70.6518C85.9217 72.8737 80.9339 76.8291 77.3842 82.0021C73.8343 87.1752 71.8873 93.3255 71.797 99.6507C71.7067 105.976 73.4775 112.182 76.8781 117.459C80.2789 122.737 85.1515 126.84 90.8605 129.234C96.5693 131.628 102.849 132.202 108.881 130.881C114.912 129.559 120.416 126.403 124.672 121.825L118.375 115.693C115.867 118.383 112.748 120.394 109.297 121.546C105.846 122.697 102.17 122.954 98.5985 122.293C95.0269 121.632 91.671 120.073 88.8303 117.756C85.9895 115.44 83.7528 112.437 82.3201 109.017C80.8872 105.597 80.3029 101.867 80.6195 98.1585C80.9361 94.4503 82.1436 90.8804 84.134 87.768C86.1245 84.6555 88.8359 82.0973 92.026 80.3223C95.216 78.5471 98.7851 77.6104 102.414 77.5958L102.487 77.5207Z" fill="#414042"/>
<path id="Vector_11" d="M73.3669 70.0778L67.0102 63.9277C62.0444 68.6712 58.1041 74.3095 55.4152 80.5191C52.7264 86.7285 51.3422 93.3867 51.3422 100.111C51.3422 106.836 52.7264 113.494 55.4152 119.703C58.1041 125.913 62.0444 131.551 67.0102 136.295L73.3669 130.144C69.2267 126.217 65.9397 121.541 63.6961 116.385C61.4528 111.23 60.2976 105.698 60.2976 100.111C60.2976 94.5241 61.4528 88.9926 63.6961 83.8372C65.9397 78.6817 69.2267 74.005 73.3669 70.0778Z" fill="#414042"/>
<path id="Vector_12" d="M133.148 58.3827C124.481 51.7515 114.008 48.1823 103.258 48.1958V57.1251C112.128 57.1166 120.771 60.05 127.937 65.5009L133.148 58.3827Z" fill="#414042"/>
<path id="Vector_13" d="M103.258 143.218V152.026C113.314 152.038 123.155 149.106 131.575 143.59L126.629 136.295C119.671 140.824 111.552 143.229 103.258 143.218Z" fill="#414042"/>
<path id="Vector_14" d="M103.258 132.338C96.4453 132.333 89.7989 130.296 84.2181 126.502C78.6372 122.707 74.3915 117.339 72.0553 111.123L63.9277 114.789C66.9884 122.508 72.3844 129.145 79.4051 133.827C86.4258 138.508 94.7417 141.014 103.258 141.014V132.338Z" fill="#414042"/>
<path id="Vector_15" d="M71.0338 98.5379C71.5614 90.2622 75.1851 82.4991 81.1694 76.8238C87.1537 71.1487 95.0505 67.9862 103.258 67.9782V59.2081C92.7475 59.2078 82.6397 63.2906 75.0259 70.6114C67.4121 77.9324 62.8752 87.931 62.3545 98.5379H71.0338Z" fill="#414042"/>
</g>
</svg>
