<svg width="200" height="200" viewBox="0 0 200 200" fill="none" xmlns="http://www.w3.org/2000/svg">
<g id="Black and White Collection 16">
<path id="Vector" d="M200 0H0V200H200V0Z" fill="white"/>
<path id="Vector_2" d="M94.3028 104.754L76.7219 135.263L59.1412 104.754H94.3028ZM99.0127 102.027H54.4123L76.7219 140.659L99.0127 102.027Z" fill="#414042"/>
<path id="Vector_3" d="M124.869 66.808L142.45 97.3169H107.288L124.869 66.808ZM124.869 61.3545L102.559 99.9865H147.179L124.869 61.3545Z" fill="#414042"/>
<path id="Vector_4" d="M33.037 61.3545L51.7429 95.5246L72.1839 62.2125L33.037 61.3545Z" fill="#414042"/>
<path id="Vector_5" d="M76.7224 64.3485L96.3436 98.3279H57.0632L76.7224 64.3485Z" fill="#414042"/>
<path id="Vector_6" d="M101.397 105.745L121.037 140.659H80.822L100.786 105.745H101.397Z" fill="#414042"/>
<path id="Vector_7" d="M105.649 103.629L124.869 138.008L144.357 103.629H105.649Z" fill="#414042"/>
</g>
</svg>
