<svg width="202" height="202" viewBox="0 0 202 202" fill="none" xmlns="http://www.w3.org/2000/svg">
<g id="Black and White Collection 2">
<path id="Vector" d="M201 1H1V201H201V1Z" fill="white"/>
<g id="Group" opacity="0.1">
<path id="Vector_2" opacity="0.1" d="M200.984 196.265V200.984H196.265" stroke="#20263C" stroke-width="1.57319" stroke-miterlimit="10"/>
<path id="Vector_3" opacity="0.1" d="M187.187 200.984H10.2504" stroke="#20263C" stroke-width="1.57319" stroke-miterlimit="10" stroke-dasharray="9.08 9.08"/>
<path id="Vector_4" opacity="0.1" d="M5.71953 200.984H1V196.265" stroke="#20263C" stroke-width="1.57319" stroke-miterlimit="10"/>
<path id="Vector_5" opacity="0.1" d="M1 187.187V10.2502" stroke="#20263C" stroke-width="1.57319" stroke-miterlimit="10" stroke-dasharray="9.08 9.08"/>
<path id="Vector_6" opacity="0.1" d="M1 5.71958V1H5.71953" stroke="#20263C" stroke-width="1.57319" stroke-miterlimit="10"/>
<path id="Vector_7" opacity="0.1" d="M14.7811 1H191.734" stroke="#20263C" stroke-width="1.57319" stroke-miterlimit="10" stroke-dasharray="9.08 9.08"/>
<path id="Vector_8" opacity="0.1" d="M196.265 1H200.984V5.71958" stroke="#20263C" stroke-width="1.57319" stroke-miterlimit="10"/>
<path id="Vector_9" opacity="0.1" d="M200.984 14.7812V191.734" stroke="#20263C" stroke-width="1.57319" stroke-miterlimit="10" stroke-dasharray="9.08 9.08"/>
</g>
<path id="Vector_10" d="M100.111 127.387C97.049 127.401 94.0272 126.659 91.2937 125.222C88.5605 123.786 86.1931 121.696 84.3865 119.124L71.7937 126.648C72.2729 127.223 72.8402 127.711 73.4728 128.092L95.8813 141.529C97.191 142.225 98.6405 142.587 100.111 142.587C101.582 142.587 103.031 142.225 104.341 141.529L126.75 128.092C127.382 127.711 127.949 127.223 128.429 126.648L115.868 118.989C114.072 121.591 111.706 123.71 108.966 125.17C106.226 126.631 103.19 127.391 100.111 127.387Z" fill="#414042"/>
<path id="Vector_11" d="M80.3948 107.11C80.4063 102.333 82.2629 97.7278 85.6099 94.1741C88.9569 90.6204 93.5596 88.3677 98.5379 87.8467V73.3669C97.7826 73.5166 97.056 73.7765 96.3836 74.1374L73.0231 86.9799C71.7534 87.7901 70.6976 88.8696 69.9386 90.1341C69.1793 91.3985 68.7374 92.8133 68.6473 94.2678V119.953C68.6577 120.694 68.7823 121.429 69.0174 122.136L82.1453 114.912C80.9973 112.456 80.4011 109.799 80.3948 107.11Z" fill="#414042"/>
<path id="Vector_12" d="M127.429 86.9709L105.298 74.1369C104.662 73.7762 103.973 73.5165 103.258 73.3669V87.805C106.264 88.1478 109.149 89.1959 111.679 90.8653C114.209 92.5346 116.315 94.7785 117.826 97.4161C119.336 100.054 120.211 103.011 120.378 106.051C120.545 109.091 120 112.128 118.787 114.917L131.224 122.136C131.447 121.43 131.565 120.695 131.575 119.954V94.2862C131.494 92.8271 131.078 91.4068 130.359 90.1373C129.639 88.8677 128.636 87.7838 127.429 86.9709Z" fill="#414042"/>
<path id="Vector_13" d="M143.549 74.108L107.015 52.9788C104.873 51.9025 102.508 51.3422 100.111 51.3422C97.7139 51.3422 95.35 51.9025 93.2073 52.9788L56.6727 74.108C54.6674 75.4163 52.9977 77.1784 51.7983 79.252C50.5991 81.3256 49.9039 83.6526 49.7689 86.0448V128.303C49.9014 130.7 50.5953 133.033 51.7946 135.112C52.9938 137.192 54.6649 138.96 56.6727 140.273L93.2073 161.403C95.35 162.479 97.7139 163.039 100.111 163.039C102.508 163.039 104.873 162.479 107.015 161.403L143.549 140.273C145.557 138.96 147.228 137.192 148.428 135.112C149.627 133.033 150.321 130.7 150.453 128.303V86.0448C150.318 83.6526 149.623 81.3256 148.424 79.252C147.224 77.1784 145.555 75.4163 143.549 74.108ZM138.859 123.442C138.751 125.284 138.214 127.075 137.291 128.671C136.367 130.268 135.083 131.625 133.54 132.635L105.396 148.903C103.752 149.734 101.936 150.167 100.095 150.167C98.2528 150.167 96.4367 149.734 94.7929 148.903L66.6818 132.635C65.1393 131.625 63.8548 130.268 62.9314 128.671C62.0077 127.075 61.4708 125.284 61.3635 123.442V90.9386C61.4708 89.0969 62.0077 87.3061 62.9314 85.7098C63.8548 84.1133 65.1393 82.7558 66.6818 81.7462L94.7597 65.4778C96.4037 64.6467 98.2196 64.2136 100.062 64.2136C101.903 64.2136 103.719 64.6467 105.363 65.4778L133.507 81.7462C135.056 82.7522 136.347 84.1082 137.276 85.7048C138.206 87.3013 138.748 89.0941 138.859 90.9386V123.442Z" fill="#414042"/>
<path id="Vector_14" d="M85.9524 107.191C85.9524 109.835 86.7827 112.421 88.3385 114.62C89.8942 116.819 92.1056 118.533 94.6929 119.545C97.28 120.557 100.127 120.822 102.873 120.306C105.62 119.79 108.143 118.516 110.123 116.646C112.103 114.776 113.451 112.393 113.998 109.799C114.544 107.205 114.264 104.517 113.192 102.073C112.12 99.6297 110.306 97.5413 107.977 96.072C105.649 94.6026 102.911 93.8184 100.111 93.8184C96.3561 93.8184 92.7547 95.2272 90.0995 97.735C87.4441 100.243 85.9524 103.644 85.9524 107.191Z" fill="#414042"/>
</g>
</svg>
